{"title":"Pappaali (2014).Tamil.WebHD.DVDRip.x264-Team.TMT-N3kr4","uid":10883373,"size":734954852,"categoryP":"video","categoryS":"hd___movies","magnet":"?xt=urn:btih:5e738054590bcc343892f4cf59c120a0e6f228c8&amp;dn=Pappaali+%282014%29.Tamil.WebHD.DVDRip.x264-Team.TMT-N3kr4&amp;tr=udp%3A%2F%2Ftracker.openbittorrent.com%3A80&amp;tr=udp%3A%2F%2Fopen.demonii.com%3A1337&amp;tr=udp%3A%2F%2Ftracker.coppersurfer.tk%3A6969&amp;tr=udp%3A%2F%2Fexodus.desync.com%3A6969","seeders":3,"leechers":2,"uploader":"Falcon.G13","files":1,"time":1409058156,"description":" &lt;a href=&quot;http://i.imgur.com/ldNyCEH.jpg&quot; rel=&quot;nofollow&quot; target=&quot;_NEW&quot;&gt;http://i.imgur.com/ldNyCEH.jpg&lt;/a&gt; &lt;a href=&quot;\nhttp://i.imgur.com/0NlNE1M.jpg&quot; rel=&quot;nofollow&quot; target=&quot;_NEW&quot;&gt;\nhttp://i.imgur.com/0NlNE1M.jpg&lt;/a&gt; &lt;a href=&quot;\nhttp://i.imgur.com/EqStv3T.jpg&quot; rel=&quot;nofollow&quot; target=&quot;_NEW&quot;&gt;\nhttp://i.imgur.com/EqStv3T.jpg&lt;/a&gt; &lt;a href=&quot;\nhttp://i.imgur.com/27GKMbW.jpg&quot; rel=&quot;nofollow&quot; target=&quot;_NEW&quot;&gt;\nhttp://i.imgur.com/27GKMbW.jpg&lt;/a&gt; &lt;a href=&quot;\nhttp://i.imgur.com/vr4ojvH.jpg&quot; rel=&quot;nofollow&quot; target=&quot;_NEW&quot;&gt;\nhttp://i.imgur.com/vr4ojvH.jpg&lt;/a&gt; &lt;a href=&quot;\nhttp://i.imgur.com/ZCEvB5J.jpg&quot; rel=&quot;nofollow&quot; target=&quot;_NEW&quot;&gt;\nhttp://i.imgur.com/ZCEvB5J.jpg&lt;/a&gt; &lt;a href=&quot;\nhttp://i.imgur.com/wiyxCBB.jpg&quot; rel=&quot;nofollow&quot; target=&quot;_NEW&quot;&gt;\nhttp://i.imgur.com/wiyxCBB.jpg&lt;/a&gt;\n\nGeneral\nComplete name : Pappaali (2014).Tamil.WebHD.DVDRip.x264-Team.TMT-N3kr4.mp4\nFormat : MPEG-4\nFormat profile : Base Media\nCodec ID : isom\nFile size : 701 MiB\nDuration : 2h 21mn\nOverall bit rate mode : Variable\nOverall bit rate : 691 Kbps\nEncoded date : UTC 2014-08-21 12:45:19\nTagged date : UTC 2014-08-21 12:45:19\n\nVideo\nID : 1\nFormat : AVC\nFormat/Info : Advanced Video Codec\nFormat profile : &lt;a class=&quot;__cf_email__&quot; href=&quot;/cdn-cgi/l/email-protection&quot; data-cfemail=&quot;e1a9888689a1add3cfd0&quot;&gt;[email&amp;#160;protected]&lt;/a&gt;&lt;script cf-hash='f9e31' type=&quot;text/javascript&quot;&gt;\n/* &lt;![CDATA[ */!function(){try{var t=&quot;currentScript&quot;in document?document.currentScript:function(){for(var t=document.getElementsByTagName(&quot;script&quot;),e=t.length;e--;)if(t[e].getAttribute(&quot;cf-hash&quot;))return t[e]}();if(t&amp;&amp;t.previousSibling){var e,r,n,i,c=t.previousSibling,a=c.getAttribute(&quot;data-cfemail&quot;);if(a){for(e=&quot;&quot;,r=parseInt(a.substr(0,2),16),n=2;a.length-n;n+=2)i=parseInt(a.substr(n,2),16)^r,e+=String.fromCharCode(i);e=document.createTextNode(e),c.parentNode.replaceChild(e,c)}}}catch(u){}}();/* ]]&gt; */&lt;/script&gt;\nFormat settings, CABAC : Yes\nFormat settings, ReFrames : 4 frames\nCodec ID : avc1\nCodec ID/Info : Advanced Video Coding\nDuration : 2h 21mn\nBit rate : 576 Kbps\nMaximum bit rate : 4 089 Kbps\nWidth : 640 pixels\nHeight : 272 pixels\nDisplay aspect ratio : 2.35:1\nFrame rate mode : Constant\nFrame rate : 25.000 fps\nColor space : YUV\nChroma subsampling : 4:2:0\nBit depth : 8 bits\nScan type : Progressive\nBits/(Pixel*Frame) : 0.132\nStream size : 584 MiB (83%)\nWriting library : x264 core 142 r2431 ac76440\nEncoded date : UTC 2014-08-21 12:45:19\nTagged date : UTC 2014-08-21 12:51:50\n\nAudio\nID : 2\nFormat : MPEG Audio\nFormat version : Version 1\nFormat profile : Layer 3\nMode : Joint stereo\nMode extension : MS Stereo\nCodec ID : 6B\nDuration : 2h 21mn\nBit rate mode : Variable\nBit rate : 112 Kbps\nNominal bit rate : 128 Kbps\nMaximum bit rate : 143 Kbps\nChannel(s) : 2 channels\nSampling rate : 44.1 KHz\nCompression mode : Lossy\nStream size : 113 MiB (16%)\nWriting library : LAME3.99r\nEncoding settings : -m j -V 4 -q 2 -lowpass 17 --abr 128\nEncoded date : UTC 2014-08-21 12:51:30\nTagged date : UTC 2014-08-21 12:51:50","torrent":{"xt":"urn:btih:5e738054590bcc343892f4cf59c120a0e6f228c8","amp;dn":"Pappaali+%282014%29.Tamil.WebHD.DVDRip.x264-Team.TMT-N3kr4","amp;tr":["udp%3A%2F%2Ftracker.openbittorrent.com%3A80","udp%3A%2F%2Fopen.demonii.com%3A1337","udp%3A%2F%2Ftracker.coppersurfer.tk%3A6969","udp%3A%2F%2Fexodus.desync.com%3A6969"],"infoHash":"5e738054590bcc343892f4cf59c120a0e6f228c8","infoHashBuffer":{"type":"Buffer","data":[94,115,128,84,89,11,204,52,56,146,244,207,89,193,32,160,230,242,40,200]},"announce":[],"urlList":[]}}